<?xml version="1.0" ?><svg style="enable-background:new 0 0 512 512;" version="1.1" viewBox="0 0 512 512" xml:space="preserve" xmlns="http://www.w3.org/2000/svg" xmlns:xlink="http://www.w3.org/1999/xlink"><style type="text/css">
	.st0{fill:none;stroke:#231F20;stroke-width:20;stroke-miterlimit:10;}
	.st1{fill:#231F20;}
</style><g id="Edges"/><g id="Background_1_"><path class="st0" d="M492.3,268.5C486,391.3,382.4,493,255.8,493.1C129,493.2,25.1,391.5,18.8,268.5   C12.1,136.5,119.9,19.4,255.6,19.4C391.3,19.4,499.1,136.5,492.3,268.5z"/></g><g id="Symbol"><path class="st1" d="M342.4,114H168.8c-30.2,0-54.7,24.5-54.7,54.7v57.7v115.8c0,30.1,24.5,54.7,54.7,54.7h173.6   c30.1,0,54.7-24.5,54.7-54.7V226.4v-57.8C397,138.5,372.5,114,342.4,114z M358.1,146.6l6.3,0v6.2v41.7l-47.8,0.2l-0.2-48   L358.1,146.6z M215.2,226.4c9.1-12.5,23.8-20.8,40.4-20.8s31.3,8.2,40.4,20.8c5.9,8.2,9.4,18.2,9.4,29c0,27.5-22.4,49.8-49.8,49.8   c-27.5,0-49.8-22.3-49.8-49.8C205.8,244.6,209.3,234.6,215.2,226.4z M369.5,342.2c0,15-12.2,27.1-27.1,27.1H168.8   c-15,0-27.1-12.1-27.1-27.1V226.4h42.2c-3.6,9-5.7,18.8-5.7,29c0,42.6,34.7,77.4,77.4,77.4c42.7,0,77.4-34.7,77.4-77.4   c0-10.3-2.1-20.1-5.7-29h42.2L369.5,342.2L369.5,342.2z"/></g></svg>